<?xml version="1.0" encoding="utf-8"?>

<!DOCTYPE svg PUBLIC "-//W3C//DTD SVG 1.1//EN" "http://www.w3.org/Graphics/SVG/1.1/DTD/svg11.dtd">
<svg version="1.1" id="Layer_1" xmlns="http://www.w3.org/2000/svg" xmlns:xlink="http://www.w3.org/1999/xlink" x="0px" y="0px"
	 width="648px" height="216px" viewBox="0 0 648 216" style="enable-background:new 0 0 648 216;" xml:space="preserve">
<style type="text/css">
<![CDATA[
	.st0{fill:#222222;}
]]>
</style>
<g>
	<path class="st0" d="M190.1,63.8V41.8V19.9h14c2.3,0,4.3,0.5,6.1,1.4c1.7,0.9,3.2,2.3,4.3,4c1.1,1.7,2,3.9,2.7,6.4
		c0.6,2.5,1,5.9,1,10.2c0,5-0.5,9.1-1.6,12.2c-1,3.1-2.6,5.5-4.6,7.2c-2.1,1.7-4.7,2.5-7.8,2.5H190.1z M195.5,41.8
		c0,7.1,0.8,11.7,2.5,14.1c1.7,2.3,3.7,3.5,6.1,3.5c2.4,0,4.5-1.2,6.1-3.5c1.7-2.3,2.5-7,2.5-14.1c0-7.1-0.8-11.8-2.5-14.1
		c-1.7-2.3-3.7-3.5-6.2-3.5c-2.4,0-4.4,1-5.8,3.1C196.4,30,195.5,34.8,195.5,41.8z"/>
</g>
<g>
	<path class="st0" d="M351,44.1V38h11.9c0,5-0.5,13-1.6,16c-1,3.1-2.6,5.5-4.6,7.2c-2.1,1.7-4.7,2.5-7.8,2.5c-4.1,0-7.4-1.5-9.8-4.5
		c-2.8-3.6-4.2-9.4-4.2-17.5c0-5.1,0.5-9.2,1.6-12.3c1-3.1,2.6-5.5,4.7-7.2c2.1-1.7,4.7-2.5,7.8-2.5h14v4.4h-14.1
		c-2.4,0-4.4,1-5.8,3.1c-1.8,2.6-2.7,7.5-2.7,14.5c0,7.1,0.8,11.7,2.5,14.1c1.7,2.3,3.7,3.5,6.1,3.5s4.5-1.2,6.1-3.5
		c1-1.4,1.7-3.7,2.1-6.9c0.1-1.2,0.3-2.4,0.3-3.8v-1.2H351z"/>
</g>
<g>
	<path class="st0" d="M485.2,41.8c0,7.1,0.8,11.7,2.5,14.1c1.7,2.3,3.7,3.5,6.1,3.5s4.5-1.2,6.1-3.5c1.7-2.3,2.5-7,2.5-14.1
		c0-7.1-0.8-11.8-2.5-14.1c-1.7-2.3-3.7-3.5-6.2-3.5h-13.9v-4.4h14h14v21.9c0,5-0.5,9.1-1.6,12.2c-1,3.1-2.6,5.5-4.6,7.2
		c-2.1,1.7-4.7,2.5-7.8,2.5c-4.1,0-7.4-1.5-9.8-4.5c-2.8-3.6-4.2-9.4-4.2-17.5H485.2z"/>
</g>
<g>
	<path class="st0" d="M576.3,64V41.8V20h5.4v21.8c0,7.1,0.8,11.7,2.5,14.1c1.7,2.3,3.7,3.5,6.1,3.5H604V64h-13.7H576.3z"/>
</g>
<g>
	<path class="st0" d="M116.2,133.8v-21.9c0-7.1-0.8-11.8-2.5-14.1c-1.7-2.3-3.7-3.5-6.2-3.5c-2.4,0-4.4,1-5.8,3.1
		c-1.8,2.6-2.7,7.5-2.7,14.5v21.9h-5.4v-21.9c0-5.1,0.5-9.2,1.6-12.3c1-3.1,2.6-5.5,4.7-7.2c2.1-1.7,4.7-2.5,7.8-2.5
		c2.3,0,4.3,0.5,6.1,1.4c1.7,0.9,3.2,2.3,4.3,4c1.1,1.7,2,3.9,2.7,6.4c0.6,2.5,1,5.9,1,10.2v21.9H116.2z"/>
</g>
<g>
	<path class="st0" d="M459.2,89.9v21.9c0,4.3-0.3,7.6-1,10.2s-1.5,4.6-2.7,6.4s-2.6,3.1-4.3,4s-3.8,1.4-6.1,1.4
		c-3.1,0-5.7-0.8-7.8-2.5c-2.1-1.7-3.6-4.1-4.7-7.2c-1-3.1-1.6-7.2-1.6-12.3V89.9h5.4v21.9c0,7,0.9,11.9,2.7,14.5
		c1.4,2.1,3.4,3.1,5.8,3.1c2.5,0,4.5-1.2,6.2-3.5c1.7-2.3,2.5-7,2.5-14.1V89.9H459.2z"/>
</g>
<g>
	<path class="st0" d="M502.2,111.8V89.9h5.4v21.9c0,4.3-0.3,7.6-1,10.2s-1.5,4.6-2.7,6.4s-2.6,3.1-4.3,4s-3.8,1.4-6.1,1.4
		c-3.1,0-5.7-0.8-7.8-2.5c-2.1-1.7-3.6-4.1-4.7-7.2c-1-3.1-1.6-7.2-1.6-12.3V89.9h5.4v21.9H502.2z"/>
</g>
<g>
	<path class="st0" d="M141.8,111.8c0-5.1,0.5-9.2,1.6-12.3c1-3.1,2.6-5.5,4.7-7.2c2.1-1.7,4.7-2.5,7.8-2.5c2.3,0,4.3,0.5,6.1,1.4
		c1.7,0.9,3.2,2.3,4.3,4c1.1,1.7,2,3.9,2.7,6.4c0.6,2.5,1,5.9,1,10.2c0,5-0.5,9.1-1.6,12.2c-1,3.1-2.6,5.5-4.6,7.2
		c-2.1,1.7-4.7,2.5-7.8,2.5c-4.1,0-7.4-1.5-9.8-4.5C143.3,125.7,141.8,119.9,141.8,111.8z M147.3,111.8c0,7.1,0.8,11.7,2.5,14.1
		c1.7,2.3,3.7,3.5,6.1,3.5c2.4,0,4.5-1.2,6.1-3.5c1.7-2.3,2.5-7,2.5-14.1c0-7.1-0.8-11.8-2.5-14.1c-1.7-2.3-3.7-3.5-6.2-3.5
		c-2.4,0-4.4,1-5.8,3.1C148.2,100,147.3,104.8,147.3,111.8z"/>
</g>
<g>
	<path class="st0" d="M252.4,133.8c-4.1,0-7.4-1.5-9.8-4.5c-2.8-3.6-4.2-9.4-4.2-17.5c0-5.1,0.5-9.2,1.6-12.3c1-3.1,2.6-5.5,4.7-7.2
		c2.1-1.7,4.7-2.5,7.8-2.5c2.3,0,4.3,0.5,6.1,1.4c1.7,0.9,3.2,2.3,4.3,4c1.1,1.7,2,3.9,2.7,6.4c0.6,2.5,1,5.9,1,10.2v21.9H252.4z
		 M243.8,111.8c0,7.1,0.8,11.7,2.5,14.1c1.7,2.3,3.7,3.5,6.1,3.5c2.4,0,4.5-1.2,6.1-3.5c1.7-2.3,2.5-7,2.5-14.1
		c0-7.1-0.8-11.8-2.5-14.1c-1.7-2.3-3.7-3.5-6.2-3.5c-2.4,0-4.4,1-5.8,3.1C244.7,100,243.8,104.8,243.8,111.8z"/>
</g>
<path class="st0" d="M218,108.3c-0.1-2.6-0.4-4.8-0.9-6.6c-0.6-2.5-1.5-4.6-2.7-6.4c-1.1-1.7-2.6-3.1-4.3-4
	c-1.7-0.9-3.8-1.4-6.1-1.4c-3.1,0-5.7,0.8-7.8,2.5c-2.1,1.7-3.7,4.1-4.7,7.2c-1,3.1-1.6,7.2-1.6,12.3V134h6v-20h7.5h7.7h4.8h2.1
	c0-0.7,0-1.4,0-2.2C218.1,110.6,218.1,109.4,218,108.3z M211,108h-7.3h-8c0.3-5,1.1-8.5,2.6-10.7c1.4-2.1,3.4-3.1,5.8-3.1
	c2.5,0,4.5,1.2,6.2,3.5c1,1.5,1.8,3.9,2.1,7.2c0.1,0.9,0.2,2,0.2,3H211z"/>
<g>
	<path class="st0" d="M342.6,125.7c1.7,2.3,3.8,3.6,6.2,3.6s4.5-1.5,6.2-3.8c1.5-2.2,2.4-5.5,2.5-12.5H348h-8h-5.1
		c0-0.4,0-0.8,0-1.2c0-1.2,0-2.4,0.1-3.5c0.2-3.5,0.7-6.4,1.5-8.8c1-3.1,2.6-5.5,4.7-7.2c2.1-1.7,4.7-2.5,7.8-2.5
		c2.3,0,4.3,0.5,6.1,1.4c1.7,0.9,3.2,2.3,4.3,4l-4.3,2.4c-1.7-2.3-3.7-3.5-6.2-3.5c-2.4,0-4.4,1.3-5.8,3.3c-1.4,2-2.3,5.4-2.6,10.4
		h7.5h14.8c0.1,1,0.1,2.6,0.1,4.1c0,0.7,0,1.2,0,1.8c-0.1,4.2-0.6,7.5-1.5,10.2c-1,3.1-2.6,5.5-4.6,7.1c-2.1,1.7-4.7,2.5-7.8,2.5
		c-4.1,0-7.4-1.5-9.8-4.5L342.6,125.7z"/>
</g>
<g>
	<path class="st0" d="M93,155h13.9c3.1,0,5.7,0.9,7.8,2.6c2.1,1.7,3.6,4.1,4.7,7.2c0.8,2.4,1.3,5.3,1.5,8.8c0.1,1.1,0.1,2.2,0.1,3.4
		c0,0.4,0,1,0,1h-5.1h-8h-9.5c0.1,7,1,10.7,2.5,12.8c1.7,2.3,3.7,4.2,6.2,4.2h14v4h-14.2c-3.1,0-5.7-0.8-7.8-2.5
		c-2.1-1.7-3.6-4-4.6-7.1c-0.9-2.7-1.4-6.1-1.5-10.3c0-0.6,0-1.2,0-1.9c0-1.5,0-3.3,0.1-4.3h14.8h7.5c-0.3-5-1.2-8.4-2.6-10.5
		c-1.4-2.1-3.6-3.5-6-3.5H93V155z"/>
</g>
<path class="st0" d="M451.4,55.9c-1,1.4-2.1,2.4-3.4,2.9v-34c1.3,0.6,2.4,1.5,3.4,2.9c1.3,1.9,2.1,5.3,2.4,10.2h5.4
	c-0.1-2.5-0.4-4.6-0.9-6.3c-0.6-2.5-1.5-4.6-2.7-6.4c-1.1-1.7-2.6-3.1-4.3-4c-1.7-0.9-3.8-1.4-6.1-1.4c-3.1,0-5.7,0.8-7.8,2.5
	c-2.1,1.7-3.6,4.1-4.7,7.2c-0.8,2.3-1.2,5.1-1.5,8.4h5.4c0.3-5,1.1-8.5,2.6-10.7c0.7-1.1,1.6-1.8,2.6-2.3v33.6
	c-1.1-0.6-2-1.5-2.9-2.7c-1.5-2.1-2.3-6.1-2.4-11.9h-5.4c0.2,6.9,1.6,12.1,4.2,15.3c2.4,3,5.6,4.5,9.8,4.5c3.1,0,5.7-0.8,7.8-2.5
	c2.1-1.7,3.6-4.1,4.6-7.2c0.9-2.6,1.4-6,1.5-10h-5.4C453.6,49.8,452.8,53.8,451.4,55.9z"/>
<path class="st0" d="M555.1,31.7c-0.6-2.5-1.5-4.6-2.7-6.4c-1.1-1.7-2.6-3.1-4.3-4c-1.7-0.9-4.1-1.4-6.1-1.4v4.4
	c2,0,4.5,1.2,6.2,3.5c1.3,1.9,2.1,5.3,2.4,10.2H533V20h-5v21.8V64h5V44h17.6c-0.2,5.8-1,9.8-2.5,11.9c-1.7,2.3-4.1,3.5-6.1,3.5v4.3
	c3,0,5.8-0.8,7.8-2.5c2.1-1.7,3.6-4.1,4.7-7.2c1-3.1,1.6-7.2,1.6-12.2C556,37.6,555.7,34.2,555.1,31.7z"/>
<path class="st0" d="M410.1,31.7c-0.6-2.5-1.5-4.6-2.6-6.4c-1.1-1.7-2.5-3.1-4.3-4c-1.7-0.9-3.7-1.3-6.1-1.3l-0.1,4.3
	c2.5,0,4.5,1.2,6.2,3.5c1.3,1.9,2.1,5.3,2.4,10.2H389V20h-6v21.8c0,8.1,1.4,13.9,4.2,17.5c2.4,3,5.8,4.5,9.8,4.5v-4.3
	c-2,0-4.4-1.2-6-3.5c-1.5-2.1-2.2-6.1-2.3-11.9H406v20h5V41.8C411,37.6,410.8,34.2,410.1,31.7z"/>
<path class="st0" d="M252.3,24H266v-4h-13.6c-3.1,0-5.7,0.8-7.8,2.5c-2.1,1.7-3.6,4-4.7,7.1c-1,3.1-1.6,7.2-1.6,12.2
	c0,8.1,1.4,14,4.2,17.6c2.4,3,5.6,4.6,9.8,4.6H266v-5h-13.6c-2.4,0-4.5-1-6.1-3.3c-1.5-2.1-2.3-5.9-2.4-11.7H255v-6h-11.1
	c0.3-5,1.1-8.7,2.6-10.8C248,25.2,249.9,24,252.3,24z"/>
<path class="st0" d="M300.6,24H315v-4h-14.3c-3.1,0-5.7,0.8-7.8,2.5c-2.1,1.7-3.4,4-4.5,7.1c-1,3.1-1.4,7.2-1.4,12.2V64h5V44h11v-6
	h-10.8c0.3-5,1.1-8.7,2.6-10.8C296.3,25.2,298.2,24,300.6,24z"/>
<path class="st0" d="M120.6,31.7c-0.6-2.5-1.5-4.6-2.7-6.4c-1.1-1.7-2.6-3.1-4.3-4c-1.7-0.9-3.8-1.3-6.1-1.3H94v21.8V64h13.6
	c3.1,0,5.7-1,7.8-2.7c2.1-1.7,3.6-4.1,4.6-7.2c1-3.1,1.6-7.2,1.6-12.2C121.6,37.6,121.3,34.2,120.6,31.7z M99.1,38
	c0.3-4.9,1.2-8.6,2.6-10.7c1.4-2.1,3.4-3.1,5.8-3.1c2.5,0,4.5,1.2,6.2,3.5c1.3,1.9,2.1,5.3,2.4,10.2H101H99.1z M101,44h15.1
	c-0.2,5.8-1,9.8-2.4,11.9c-1.7,2.3-3.7,3.5-6.1,3.5c-2.4,0-4.5-1.2-6.1-3.5c-1.5-2.1-2.3-6-2.4-11.9H101z"/>
<path class="st0" d="M162,55.9c-1.7,2.3-3.7,3.5-6.1,3.5c-2.4,0-4.5-1.2-6.1-3.5c-1.7-2.3-2.5-7-2.5-14.1c0-7.1,0.9-11.9,2.7-14.5
	c1.4-2.1,3.4-3.1,5.8-3.1c2.5,0,4.5,1.2,6.2,3.5c1.3,1.9,2.1,5.3,2.4,10.2h5.4c-0.1-2.5-0.4-4.6-0.9-6.3c-0.6-2.5-1.5-4.6-2.7-6.4
	c-1.1-1.7-2.6-3.1-4.3-4c-1.7-0.9-3.8-1.4-6.1-1.4c-3.1,0-5.7,0.8-7.8,2.5c-2.1,1.7-3.6,4.1-4.7,7.2c-1,3.1-1.6,7.2-1.6,12.3
	c0,8.1,1.4,13.9,4.2,17.5c2.4,3,5.6,4.5,9.8,4.5c3.1,0,5.7-0.8,7.8-2.5c2.1-1.7,3.6-4.1,4.6-7.2c0.9-2.6,1.4-6,1.5-10h-5.4
	C164.2,49.8,163.4,53.8,162,55.9z"/>
<path class="st0" d="M72.2,31.7c-0.6-2.5-1.5-4.6-2.6-6.4c-1.1-1.7-2.5-3.1-4.3-4c-1.7-0.9-3.7-1.4-6-1.4c-3.1,0-5.7,0.8-7.8,2.5
	c-2.1,1.7-3.8,4.1-4.8,7.2c-1,3.1-1.7,7.2-1.7,12.3V64h6V44h17v20h5V41.8C73,37.6,72.8,34.2,72.2,31.7z M53.4,27.3
	c1.4-2.1,3.4-3.1,5.8-3.1c2.5,0,4.5,1.2,6.2,3.5c1.3,1.9,2.1,5.3,2.4,10.2H50.8C51.1,33,52,29.5,53.4,27.3z"/>
<path class="st0" d="M168.9,166.7c-0.6-2.5-1.5-4.6-2.7-6.4c-1.1-1.7-2.6-3.1-4.3-4c-1.7-0.9-3.8-1.4-6.1-1.4
	c-3.1,0-5.7,0.8-7.8,2.5c-2.1,1.7-3.6,4.1-4.7,7.2c-1,3.1-1.6,7.2-1.6,12.3c0,8.1,1.4,13.9,4.2,17.5c2.4,3,5.6,4.5,9.8,4.5
	c3.1,0,5.7-0.8,7.8-2.5c2.1-1.7,3.6-4.1,4.6-7.2c1-3.1,1.6-7.2,1.6-12.2C169.9,172.6,169.5,169.2,168.9,166.7z M150,162.3
	c1.4-2.1,3.4-3.1,5.8-3.1c2.5,0,4.5,1.2,6.2,3.5c1.3,1.9,2.1,5.3,2.4,10.2h-16.9C147.7,168,148.5,164.5,150,162.3z M162,190.9
	c-1.7,2.3-3.7,3.5-6.1,3.5c-2.4,0-4.5-1.2-6.1-3.5c-1.5-2.1-2.3-6.1-2.4-11.9h17.1C164.2,184.8,163.4,188.8,162,190.9z"/>
<path class="st0" d="M603.2,101.7c-0.6-2.5-1.5-4.6-2.7-6.4c-1.1-1.7-2.6-3.1-4.3-4c-1-0.5-2.1-0.9-3.3-1.1v4.7
	c1.2,0.6,2.3,1.5,3.3,2.9c1.3,1.9,2.1,5.3,2.4,10.2h-17c0.3-5,1.1-8.5,2.6-10.7c0.8-1.1,1.6-1.9,2.7-2.4v-4.7
	c-1.7,0.4-3.3,1.1-4.6,2.2c-2.1,1.7-3.6,4.1-4.7,7.2c-1,3.1-1.6,7.2-1.6,12.3c0,8.1,1.4,13.9,4.2,17.5c1.7,2.2,3.9,3.5,6.6,4.1v-4.8
	c-1.1-0.6-2-1.5-2.9-2.7c-1.5-2.1-2.3-6.1-2.4-11.9h17.1c-0.2,5.8-1,9.8-2.4,11.9c-1,1.4-2.1,2.3-3.3,2.9v4.7c1.9-0.4,3.6-1.1,5-2.3
	c2.1-1.7,3.6-4.1,4.6-7.2c1-3.1,1.6-7.2,1.6-12.2C604.2,107.6,603.9,104.2,603.2,101.7z"/>
<path class="st0" d="M551,90v21.8c0,7.1-1,11.8-2.7,14.1c-0.9,1.3-2.2,2.2-3.3,2.8V110h-6v18.8c-1.1-0.5-2.3-1.3-3-2.4
	c-1.8-2.6-3-7.5-3-14.5V90h-5v21.8c0,5.1,0.5,9.2,1.6,12.3s2.6,5.5,4.7,7.2c2.1,1.7,4.7,2.5,7.8,2.5c2.3,0,4.3-0.5,6.1-1.4
	c1.7-0.9,3.2-2.3,4.3-4c1.1-1.7,2-3.9,2.6-6.4s0.9-5.9,0.9-10.2V90H551z"/>
<path class="st0" d="M72.1,101.7c-0.6-2.5-1.5-4.6-2.6-6.4c-1.1-1.7-2.6-3.1-4.3-4c-1.7-0.9-3.8-1.4-6.1-1.4c-3.1,0-5.7,0.8-7.8,2.5
	c-2.1,1.7-3.7,4.1-4.7,7.2c-1,3.1-1.6,7.2-1.6,12.3V134h6v-22.2c0-7.1,0.7-11.9,2.5-14.5c0.8-1.1,1.5-1.9,2.5-2.4V134h6V94.9
	c1.2,0.6,2.4,1.5,3.4,2.8c1.7,2.3,2.6,7,2.6,14.1V134h5v-22.2C73,107.6,72.7,104.2,72.1,101.7z"/>
<path class="st0" d="M410,112c0-4-0.3-7.7-0.9-10.2s-1.5-4.7-2.6-6.4c-1.1-1.7-2.6-3.1-4.3-4c-1.7-0.9-3.8-1.4-6.1-1.4
	c-3.1,0-5.7,0.8-7.8,2.5c-2.1,1.7-3.7,4.1-4.7,7.2c-1,3.1-1.6,7.3-1.6,12.3h6c0-7,0.7-12,2.5-14.6c0.8-1.1,1.5-2,2.5-2.5V134h6V94.9
	c1.2,0.6,2.4,1.6,3.4,2.9c1.7,2.3,2.6,7.2,2.6,14.2H410z"/>
<path class="st0" d="M50,179h17.4c-0.2,5.8-1,9.8-2.4,11.9c-1.7,2.3-3.7,3.5-6.1,3.5c-2.4,0-4.5-1.2-6.1-3.5l-3.6,3.4
	c2.4,3,5.6,4.5,9.7,4.5c3.1,0,5.7-0.8,7.8-2.5c2.1-1.7,3.7-4.1,4.7-7.2c1-3.1,1.6-7.2,1.6-12.2V155h-6v18H50v-18h-5v21.8
	c0,0.8,0,1.4,0,2.2H50z"/>
<path class="st0" d="M313.7,101.7c-0.6-2.5-1.5-4.6-2.7-6.4c-1.1-1.7-2.6-3.1-4.3-4c-1.7-0.9-3.7-1.3-6-1.3H287v22v22h5v-20l0.1,0.3
	c0-0.1,0-0.2,0-0.3h17.2c-0.1,5.8-0.9,9.8-2.4,11.9c-1.7,2.3-3.9,3.5-5.9,3.5v4.3c3,0,5.6-0.8,7.6-2.5c2.1-1.7,3.4-4.1,4.5-7.2
	c1-3.1,1.6-7.2,1.6-12.2C314.7,107.6,314.4,104.2,313.7,101.7z M294.8,97.3c1.4-2.1,3.4-3.1,5.8-3.1c2.5,0,4.5,1.2,6.2,3.5
	c1.3,1.9,2.1,5.3,2.4,10.2h-17c0-0.3,0-0.7,0.1-1C292.6,102.5,293.5,99.3,294.8,97.3z"/>
</svg>
